<?xml version="1.0" encoding="UTF-8"?>
<svg id="Layer_1" data-name="Layer 1" xmlns="http://www.w3.org/2000/svg" xmlns:xlink="http://www.w3.org/1999/xlink" viewBox="0 0 1280 1024">
  <defs>
    <style>
      .cls-1, .cls-2 {
        fill: none;
      }

      .cls-3 {
        fill: url(#New_Pattern);
        opacity: .4;
      }

      .cls-2 {
        fill-rule: evenodd;
        stroke: #f2f2f2;
        stroke-linecap: round;
        stroke-miterlimit: 10;
      }
    </style>
    <pattern id="New_Pattern" data-name="New Pattern" x="0" y="0" width="101.41" height="105.38" patternUnits="userSpaceOnUse" viewBox="0 0 101.41 105.38">
      <g>
        <rect class="cls-1" width="101.41" height="105.38"/>
        <path class="cls-2" d="M93.41,73.51l-16.31,25.45s10.62-2,11.12,2.12c.76,6.15-6.58,34.77-6.58,34.77l18.88-38.85s-9.95,1.8-11.13-2.11c-1.19-3.91,4.02-21.37,4.02-21.37h0Z"/>
        <path class="cls-2" d="M68.06,73.51l-16.31,25.45s10.62-2,11.12,2.12c.76,6.15-6.58,34.77-6.58,34.77l18.88-38.85s-9.95,1.8-11.13-2.11c-1.19-3.91,4.02-21.37,4.02-21.37h0Z"/>
        <path class="cls-2" d="M42.71,73.51l-16.31,25.45s10.62-2,11.12,2.12c.76,6.15-6.58,34.77-6.58,34.77l18.88-38.85s-9.95,1.8-11.13-2.11c-1.19-3.91,4.02-21.37,4.02-21.37h0Z"/>
        <path class="cls-2" d="M17.36,73.51L1.05,98.96s10.62-2,11.12,2.12c.76,6.15-6.58,34.77-6.58,34.77l18.88-38.85s-9.95,1.8-11.13-2.11c-1.19-3.91,4.02-21.37,4.02-21.37h0Z"/>
        <path class="cls-2" d="M106.09,20.82l-16.31,25.45s10.62-2,11.12,2.12c.76,6.15-6.58,34.77-6.58,34.77l18.88-38.85s-9.95,1.8-11.13-2.11c-1.19-3.91,4.02-21.37,4.02-21.37h0Z"/>
        <path class="cls-2" d="M80.74,20.82l-16.31,25.45s10.62-2,11.12,2.12c.76,6.15-6.58,34.77-6.58,34.77l18.88-38.85s-9.95,1.8-11.13-2.11c-1.19-3.91,4.02-21.37,4.02-21.37h0Z"/>
        <path class="cls-2" d="M55.39,20.82l-16.31,25.45s10.62-2,11.12,2.12c.76,6.15-6.58,34.77-6.58,34.77l18.88-38.85s-9.95,1.8-11.13-2.11c-1.19-3.91,4.02-21.37,4.02-21.37h0Z"/>
        <path class="cls-2" d="M30.03,20.82l-16.31,25.45s10.62-2,11.12,2.12c.76,6.15-6.58,34.77-6.58,34.77l18.88-38.85s-9.95,1.8-11.13-2.11c-1.19-3.91,4.02-21.37,4.02-21.37h0Z"/>
        <path class="cls-2" d="M4.68,20.82l-16.31,25.45s10.62-2,11.12,2.12c.76,6.15-6.58,34.77-6.58,34.77L11.8,44.3s-9.95,1.8-11.13-2.11c-1.19-3.91,4.02-21.37,4.02-21.37h0Z"/>
        <path class="cls-2" d="M93.41-31.87l-16.31,25.45s10.62-2,11.12,2.12c.76,6.15-6.58,34.77-6.58,34.77l18.88-38.85s-9.95,1.8-11.13-2.11c-1.19-3.91,4.02-21.37,4.02-21.37h0Z"/>
        <path class="cls-2" d="M68.06-31.87L51.75-6.43s10.62-2,11.12,2.12c.76,6.15-6.58,34.77-6.58,34.77l18.88-38.85s-9.95,1.8-11.13-2.11c-1.19-3.91,4.02-21.37,4.02-21.37h0Z"/>
        <path class="cls-2" d="M42.71-31.87L26.4-6.43s10.62-2,11.12,2.12c.76,6.15-6.58,34.77-6.58,34.77L49.82-8.39s-9.95,1.8-11.13-2.11c-1.19-3.91,4.02-21.37,4.02-21.37h0Z"/>
        <path class="cls-2" d="M17.36-31.87L1.05-6.43s10.62-2,11.12,2.12c.76,6.15-6.58,34.77-6.58,34.77L24.47-8.39s-9.95,1.8-11.13-2.11c-1.19-3.91,4.02-21.37,4.02-21.37h0Z"/>
      </g>
    </pattern>
  </defs>
  <rect class="cls-3" width="1280" height="1024"/>
</svg>