<?xml version="1.0" encoding="UTF-8"?>
<svg id="Layer_1" xmlns="http://www.w3.org/2000/svg" version="1.1" viewBox="0 0 147.3 34">
  <!-- Generator: Adobe Illustrator 29.3.1, SVG Export Plug-In . SVG Version: 2.1.0 Build 151)  -->
  <defs>
    <style>
      .st0 {
        fill: #0df205;
        fill-rule: evenodd;
      }

      .st1 {
        fill: #040d08;
      }
    </style>
  </defs>
  <g>
    <path class="st0" d="M18.3,3.2l-7.2,11.2s4.7-.9,4.9.9c.3,2.7-2.9,15.3-2.9,15.3l8.3-17.1s-4.4.8-4.9-.9c-.5-1.7,1.8-9.4,1.8-9.4h0Z"/>
    <g>
      <path class="st1" d="M6.2,22.3c-.5-.3-.9-.7-1.3-1.3-.3-.5-.5-1.1-.5-1.7V4.1h3.5v15.2s0,0,0,0c0,0,0,0,0,0h5.2l-.8,3.5h-4.6c-.6,0-1.2-.2-1.7-.5Z"/>
      <path class="st1" d="M24.9,22.3c-.5-.3-.9-.7-1.3-1.3-.3-.5-.5-1.1-.5-1.7V4.5h3.5v4.3h5.4v3.5h-5.4v7.1s0,0,0,0c0,0,0,0,0,0h5.2v3.5h-5.4c-.6,0-1.2-.2-1.7-.5Z"/>
      <path class="st1" d="M34.8,22.8v-14.1h17.2c.6,0,1.2.2,1.8.5.5.3.9.7,1.2,1.3.3.5.5,1.1.5,1.7v10.7h-3.5v-10.5s0,0,0,0c0,0,0,0,0,0h-4.8s0,0,0,0c0,0,0,0,0,0v10.5h-3.5v-10.5s0,0,0,0c0,0,0,0,0,0h-4.9s0,0,0,0c0,0,0,0,0,0v10.5h-3.5Z"/>
      <path class="st1" d="M61.6,22.8c-.6,0-1.2-.2-1.7-.5-.5-.3-.9-.7-1.2-1.3-.3-.5-.5-1.1-.5-1.7v-5.4h10.8v-1.7s0,0,0,0c0,0,0,0,0,0h-10.7v-3.5h10.9c.6,0,1.2.2,1.7.5.5.3.9.7,1.2,1.3.3.5.5,1.1.5,1.7v10.7h-10.9ZM61.8,19.4h7.2v-2.3h-7.4v2.1s0,0,0,0c0,0,0,0,0,0Z"/>
      <path class="st1" d="M75.1,22.8v-14.1h10.9c.6,0,1.2.2,1.7.5.5.3.9.7,1.2,1.3.3.5.5,1.1.5,1.7v10.7h-3.5v-10.5s0,0,0,0c0,0,0,0,0,0h-7.1s0,0,0,0c0,0,0,0,0,0v10.5h-3.5Z"/>
    </g>
    <g>
      <path class="st1" d="M25.3,30.8v-4h-2v-1h5v1h-2v4h-1Z"/>
      <path class="st1" d="M29.1,30.8v-5h4.6v1h-3.6v1h2.9v1h-2.9v1h3.6v1h-4.6Z"/>
      <path class="st1" d="M35.7,30.8c-.2,0-.4,0-.5-.1-.1,0-.3-.2-.4-.4,0-.1-.1-.3-.1-.5v-3c0-.2,0-.4.1-.5,0-.1.2-.3.4-.4.1,0,.3-.1.5-.1h4v1h-3.7c0,0-.1,0-.2,0s0,0,0,.2v2.5c0,0,0,.1,0,.2,0,0,0,0,.2,0h3.7v1h-4Z"/>
      <path class="st1" d="M40.8,30.8v-5h1v2h3.1v-2h1v5h-1v-2h-3.1v2h-1Z"/>
      <path class="st1" d="M47,30.8v-5h1.1l2.9,3.5v-3.5h1v5h-1.1l-2.9-3.5v3.5h-1Z"/>
      <path class="st1" d="M54.1,30.8c-.2,0-.3,0-.5-.1-.2,0-.3-.2-.4-.4,0-.2-.1-.3-.1-.5v-3c0-.2,0-.3.1-.5s.2-.3.4-.4c.2,0,.3-.1.5-.1h3c.2,0,.3,0,.5.1.1,0,.3.2.4.4,0,.2.1.3.1.5v3c0,.2,0,.3-.1.5,0,.2-.2.3-.4.4-.2,0-.3.1-.5.1h-3ZM54.1,29.8h2.9s0,0,0,0c0,0,0,0,0,0v-2.9s0,0,0,0c0,0,0,0,0,0h-2.9s0,0,0,0,0,0,0,0v2.9s0,0,0,0,0,0,0,0Z"/>
      <path class="st1" d="M59.2,30.8v-5h1v4h4v1h-5Z"/>
      <path class="st1" d="M65.9,30.8c-.2,0-.3,0-.5-.1-.2,0-.3-.2-.4-.4,0-.2-.1-.3-.1-.5v-3c0-.2,0-.3.1-.5s.2-.3.4-.4c.2,0,.3-.1.5-.1h3c.2,0,.3,0,.5.1.1,0,.3.2.4.4,0,.2.1.3.1.5v3c0,.2,0,.3-.1.5,0,.2-.2.3-.4.4-.2,0-.3.1-.5.1h-3ZM65.9,29.8h2.9s0,0,0,0c0,0,0,0,0,0v-2.9s0,0,0,0c0,0,0,0,0,0h-2.9s0,0,0,0,0,0,0,0v2.9s0,0,0,0,0,0,0,0Z"/>
      <path class="st1" d="M72,30.8c-.2,0-.3,0-.5-.1-.2,0-.3-.2-.4-.4,0-.2-.1-.3-.1-.5v-3c0-.2,0-.3.1-.5s.2-.3.4-.4c.2,0,.3-.1.5-.1h3c.2,0,.3,0,.5.1.2,0,.3.2.4.4,0,.2.1.3.1.5v.4h-1v-.4s0,0,0,0,0,0,0,0h-2.9s0,0,0,0,0,0,0,0v2.9s0,0,0,0,0,0,0,0h2.9s0,0,0,0,0,0,0,0v-.8h-1.1v-1h2.1v1.9c0,.2,0,.3-.1.5,0,.2-.2.3-.4.4-.2,0-.3.1-.5.1h-3Z"/>
      <path class="st1" d="M76.9,30.8v-5h1v5h-1Z"/>
      <path class="st1" d="M78.9,30.8v-5h4.6v1h-3.6v1h2.9v1h-2.9v1h3.6v1h-4.6Z"/>
      <path class="st1" d="M85.5,30.8c-.2,0-.3,0-.5-.1-.2,0-.3-.2-.4-.4,0-.2-.1-.3-.1-.5v-.4h1v.4s0,0,0,0,0,0,0,0h2.9s0,0,0,0,0,0,0,0v-.9s0,0,0,0c0,0,0,0,0,0h-2.9c-.2,0-.3,0-.5-.1-.2,0-.3-.2-.4-.4,0-.1-.1-.3-.1-.5v-1c0-.2,0-.3.1-.5s.2-.3.4-.4c.2,0,.3-.1.5-.1h3c.2,0,.3,0,.5.1.1,0,.3.2.4.4s.1.3.1.5v.4h-1v-.4s0,0,0,0,0,0,0,0h-2.9s0,0,0,0,0,0,0,0v.9s0,0,0,0c0,0,0,0,0,0h3c.2,0,.3,0,.5.1s.3.2.4.4c0,.1.1.3.1.5v1c0,.2,0,.3-.1.5,0,.2-.2.3-.4.4-.1,0-.3.1-.5.1h-3Z"/>
    </g>
  </g>
  <g>
    <path class="st1" d="M100.1,9h0c0-.1.6-.1.6-.1l1.2,2.3,1.2-2.3h.7c0,.1-1.6,3-1.6,3v1.7h-.7v-1.7l-1.6-2.9Z"/>
    <path class="st1" d="M104,12.5v-1.5c0-.7.4-1.1,1.1-1.1h1c.7,0,1.1.4,1.1,1.1v1.5c0,.7-.4,1.1-1.1,1.1h-1c-.7,0-1.1-.4-1.1-1.1ZM104.6,12.6c0,.3.1.4.4.4h.9c.3,0,.4-.1.4-.4v-1.6c0-.3-.1-.4-.4-.4h-.9c-.3,0-.4.1-.4.4v1.6Z"/>
    <path class="st1" d="M107.7,12.5v-2.6h.7v2.6c0,.3.1.4.4.4h1.3v-3h.7v3.6h-2c-.7,0-1.1-.4-1.1-1.1Z"/>
    <path class="st1" d="M111.4,13.6v-3.2c.2-.3.5-.4.9-.4h.7l.3.2v.4h-.9c-.2,0-.3,0-.4.1v2.9h-.7Z"/>
    <path class="st1" d="M115.1,13.6v-4.8h.8l2.3,3.7v-3.7h.7v4.8h-.8l-2.3-3.7v3.7h-.7Z"/>
    <path class="st1" d="M119.7,12.5v-1.5c0-.7.4-1.1,1.1-1.1h1c.7,0,1.1.4,1.1,1.1v1.5c0,.7-.4,1.1-1.1,1.1h-1c-.7,0-1.1-.4-1.1-1.1ZM120.4,12.6c0,.3.1.4.4.4h.9c.3,0,.4-.1.4-.4v-1.6c0-.3-.1-.4-.4-.4h-.9c-.3,0-.4.1-.4.4v1.6Z"/>
    <path class="st1" d="M123.5,13.6v-.8h.8v.8h-.8Z"/>
    <path class="st1" d="M125,13.6v-.6h1.2v-3.5h-.9v-.4l.4-.3h1.3v4.1h1v.6h-2.9Z"/>
    <path class="st1" d="M100.2,18.2v-1.1h4v1.1h-1.4v3.7h-1.2v-3.7h-1.4Z"/>
    <path class="st1" d="M104.2,21.9v-3.2c.2-.3.5-.5,1-.5h.8l.5.4v.6h-.9c-.1,0-.2,0-.2,0v2.6h-1.2Z"/>
    <path class="st1" d="M106.8,20.8v-2.5h1.2v2.6c0,0,0,0,0,0h.8v-2.7h1.2v3.7h-2.1c-.8,0-1.2-.4-1.2-1.2Z"/>
    <path class="st1" d="M110.5,21.6v-.6h1.6c0,0,.1,0,.1-.2s0-.2-.1-.2h-.7c-.6-.2-.9-.6-.9-1.2s.4-1.2,1.2-1.2h1l.5.4v.6h-1.4c0,0-.1,0-.1.2s0,.2.1.2h.7c.6.2.9.6.9,1.1s-.4,1.2-1.2,1.2h-1.2l-.5-.4Z"/>
    <path class="st1" d="M113.8,20.8v-3.6h1.2v1.1h1.1v1h-1.1v1.6c0,0,0,0,0,0h1.1v.6l-.5.4h-.7c-.8,0-1.2-.4-1.2-1.2Z"/>
    <path class="st1" d="M116.5,20.8v-1.4c0-.8.4-1.2,1.2-1.2h.9c.8,0,1.2.4,1.2,1.2v1.1h-2.1v.3c0,0,0,0,0,0h1.8v.6l-.5.4h-1.4c-.8,0-1.2-.4-1.2-1.2ZM117.6,19.6h.9v-.3c0,0,0,0,0,0h-.7c0,0,0,0,0,0v.3Z"/>
    <path class="st1" d="M120.2,20.8v-1.4c0-.8.4-1.2,1.2-1.2h.9v-1.4h1.2v5.1h-2.1c-.8,0-1.2-.4-1.2-1.2ZM121.3,20.8c0,0,0,0,0,0h.8v-1.7h-.8c0,0,0,0,0,0v1.5Z"/>
    <path class="st1" d="M125.4,21.9v-4.8h1.8c1.4,0,2.1.7,2.1,2.1v.7c0,1.4-.7,2.1-2.1,2.1h-1.8ZM126.6,20.8h.7c.5,0,.8-.3.8-.8v-1c0-.5-.3-.8-.8-.8h-.7v2.6Z"/>
    <path class="st1" d="M129.8,17.7v-1.1h1.2v1.1h-1.2ZM129.8,21.9v-3.7h1.2v3.7h-1.2Z"/>
    <path class="st1" d="M131.4,20.8v-1.4c0-.8.4-1.2,1.2-1.2h2.1v3.9c0,.8-.4,1.2-1.2,1.2h-1.2l-.5-.4v-.6h1.7c0,0,0,0,0,0v-.3h-.9c-.8,0-1.2-.4-1.2-1.2ZM132.6,20.8c0,0,0,0,0,0h.8v-1.7h-.8c0,0,0,0,0,0v1.5Z"/>
    <path class="st1" d="M135.2,17.7v-1.1h1.2v1.1h-1.2ZM135.2,21.9v-3.7h1.2v3.7h-1.2Z"/>
    <path class="st1" d="M136.9,20.8v-3.6h1.2v1.1h1.1v1h-1.1v1.6c0,0,0,0,0,0h1.1v.6l-.5.4h-.7c-.8,0-1.2-.4-1.2-1.2Z"/>
    <path class="st1" d="M140.6,21.9c-.8,0-1.2-.4-1.2-1.1s.4-1.1,1.2-1.1h.8v-.3c0,0,0,0,0,0h-1.5v-.6l.5-.4h1.1c.8,0,1.2.4,1.2,1.2v2.5h-2ZM140.6,20.8c0,0,0,0,0,0h.7v-.4h-.7c0,0,0,0,0,0v.2Z"/>
    <path class="st1" d="M143.1,20.4v-3.6h1.2v3.7c0,.3.1.4.4.5v1c-1.1,0-1.6-.5-1.6-1.6Z"/>
    <path class="st1" d="M100.6,30.3v-4.8h2.3c.7,0,1.1.4,1.1,1.1v.9c0,.7-.4,1.1-1.1,1.1h-1.6v1.7h-.7ZM101.3,27.9h1.6c.3,0,.4-.1.4-.4v-1c0-.3-.1-.4-.4-.4h-1.6v1.8Z"/>
    <path class="st1" d="M105.3,30.3c-.7,0-1.1-.4-1.1-1.1s.4-1.1,1.1-1.1h1.2v-.5c0-.3-.1-.4-.4-.4h-1.5v-.4l.3-.2h1.2c.7,0,1.1.4,1.1,1.1v2.6h-1.8ZM104.9,29.3c0,.3.1.4.4.4h1.2v-1h-1.2c-.3,0-.4.1-.4.4v.2Z"/>
    <path class="st1" d="M107.8,30.3v-3.2c.2-.3.5-.4.9-.4h.7l.3.2v.4h-.9c-.2,0-.3,0-.4.1v2.9h-.7Z"/>
    <path class="st1" d="M110.1,29.2v-3.7h.7v1.2h1.3v.6h-1.3v2c0,.3.1.4.4.4h.9v.4l-.3.2h-.6c-.7,0-1.1-.4-1.1-1.1Z"/>
    <path class="st1" d="M112.6,30.3v-3.6h2c.7,0,1.1.4,1.1,1.1v2.6h-.7v-2.6c0-.3-.1-.4-.4-.4h-1.3v3h-.7Z"/>
    <path class="st1" d="M116.3,29.2v-1.5c0-.7.4-1.1,1.1-1.1h.9c.7,0,1.1.4,1.1,1.1v1h-2.4v.6c0,.3.1.4.4.4h1.8v.4l-.3.2h-1.5c-.7,0-1.1-.4-1.1-1.1ZM117,28.2h1.7v-.5c0-.3-.1-.4-.4-.4h-.9c-.3,0-.4.1-.4.4v.5Z"/>
    <path class="st1" d="M120,30.3v-3.2c.2-.3.5-.4.9-.4h.7l.3.2v.4h-.9c-.2,0-.3,0-.4.1v2.9h-.7Z"/>
  </g>
  <rect class="st1" x="94.7" y="8.7" width=".5" height="22.1"/>
</svg>