<?xml version="1.0" encoding="UTF-8"?>
<svg id="Layer_1" xmlns="http://www.w3.org/2000/svg" version="1.1" viewBox="0 0 34 34">
  <!-- Generator: Adobe Illustrator 29.3.1, SVG Export Plug-In . SVG Version: 2.1.0 Build 151)  -->
  <defs>
    <style>
      .st0 {
        fill: #fff;
      }

      .st0, .st1 {
        fill-rule: evenodd;
      }

      .st1 {
        fill: #0df205;
      }
    </style>
  </defs>
  <path class="st1" d="M1.1,6.1C0,8.4,0,11.2,0,17S0,25.6,1.1,27.9c1.1,2.2,2.9,4,5.1,5.1,2.2,1.1,5.1,1.1,10.9,1.1s8.6,0,10.9-1.1c2.2-1.1,4-2.9,5.1-5.1,1.1-2.2,1.1-5.1,1.1-10.9s0-8.6-1.1-10.9c-1.1-2.2-2.9-4-5.1-5.1-2.2-1.1-5.1-1.1-10.9-1.1S8.4,0,6.1,1.1C3.9,2.1,2.1,3.9,1.1,6.1Z"/>
  <path class="st0" d="M15.6,31.2s1.5-10.3,1-13.7c-.4-2.2-7.5-1.1-7.5-1.1L19.9,2.8c-.6,1.6-3.3,9.4-2.5,11.3.9,2.1,7.5,1.1,7.5,1.1l-9.2,16Z"/>
</svg>